<svg xmlns="http://www.w3.org/2000/svg" xmlns:xlink="http://www.w3.org/1999/xlink" width="721" zoomAndPan="magnify" viewBox="0 0 540.75 225" height="300" preserveAspectRatio="xMidYMid meet" version="1.2"><defs><clipPath id="0b843c09a3"><path d="M 0 0.0507812 L 540.5 0.0507812 L 540.5 224.945312 L 0 224.945312 Z M 0 0.0507812 "/></clipPath></defs><g id="95c9e27b7e"><g clip-rule="nonzero" clip-path="url(#0b843c09a3)"><path style=" stroke:none;fill-rule:nonzero;fill:#ffffff;fill-opacity:1;" d="M 0 0.0507812 L 540.5 0.0507812 L 540.5 224.949219 L 0 224.949219 Z M 0 0.0507812 "/><path style=" stroke:none;fill-rule:nonzero;fill:#070a0e;fill-opacity:1;" d="M 0 0.0507812 L 540.5 0.0507812 L 540.5 224.949219 L 0 224.949219 Z M 0 0.0507812 "/></g><g style="fill:#ffffff;fill-opacity:1;"><g transform="translate(11.474805, 166.49991)"><path style="stroke:none" d="M 97.390625 -74.359375 C 105.347656 -65.640625 109.328125 -54.984375 109.328125 -42.390625 C 109.328125 -29.804688 105.347656 -19.179688 97.390625 -10.515625 C 89.441406 -1.847656 79.335938 2.484375 67.078125 2.484375 C 55.816406 2.484375 46.539062 -1.546875 39.25 -9.609375 L 38.921875 -9.609375 L 38.921875 0 L 9.9375 0 L 9.9375 -142.453125 L 39.25 -142.453125 L 39.25 -76.859375 C 46.539062 -83.921875 55.816406 -87.453125 67.078125 -87.453125 C 79.335938 -87.453125 89.441406 -83.085938 97.390625 -74.359375 Z M 72.71875 -28.078125 C 76.363281 -31.773438 78.1875 -36.550781 78.1875 -42.40625 C 78.1875 -48.257812 76.28125 -53.0625 72.46875 -56.8125 C 68.65625 -60.570312 63.9375 -62.453125 58.3125 -62.453125 C 52.789062 -62.453125 48.125 -60.570312 44.3125 -56.8125 C 40.5 -53.0625 38.59375 -48.257812 38.59375 -42.40625 C 38.59375 -36.664062 40.441406 -31.914062 44.140625 -28.15625 C 47.835938 -24.40625 52.5625 -22.53125 58.3125 -22.53125 C 64.269531 -22.53125 69.070312 -24.378906 72.71875 -28.078125 Z M 72.71875 -28.078125 "/></g></g><g style="fill:#ffffff;fill-opacity:1;"><g transform="translate(111.681642, 166.49991)"><path style="stroke:none" d="M 37.59375 -84.96875 L 37.59375 -44.5625 C 37.59375 -36.164062 38.863281 -30.203125 41.40625 -26.671875 C 43.945312 -23.140625 48.253906 -21.375 54.328125 -21.375 C 60.398438 -21.375 64.707031 -23.140625 67.25 -26.671875 C 69.789062 -30.203125 71.0625 -36.164062 71.0625 -44.5625 L 71.0625 -84.96875 L 100.375 -84.96875 L 100.375 -37.4375 C 100.375 -23.300781 96.703125 -13.113281 89.359375 -6.875 C 82.015625 -0.632812 70.335938 2.484375 54.328125 2.484375 C 38.316406 2.484375 26.640625 -0.632812 19.296875 -6.875 C 11.953125 -13.113281 8.28125 -23.300781 8.28125 -37.4375 L 8.28125 -84.96875 Z M 37.59375 -84.96875 "/></g></g><g style="fill:#ffffff;fill-opacity:1;"><g transform="translate(207.416363, 166.49991)"><path style="stroke:none" d="M 74.375 -84.96875 L 108.15625 -84.96875 L 41.40625 43.0625 L 7.625 43.0625 L 36.9375 -13.25 L -3.3125 -84.96875 L 30.484375 -84.96875 L 54.171875 -41.40625 Z M 74.375 -84.96875 "/></g></g><g style="fill:#ffffff;fill-opacity:1;"><g transform="translate(299.341519, 166.49991)"><path style="stroke:none" d="M 97.390625 -74.359375 C 105.347656 -65.640625 109.328125 -54.984375 109.328125 -42.390625 C 109.328125 -29.804688 105.347656 -19.179688 97.390625 -10.515625 C 89.441406 -1.847656 79.335938 2.484375 67.078125 2.484375 C 55.816406 2.484375 46.539062 -1.546875 39.25 -9.609375 L 38.921875 -9.609375 L 38.921875 0 L 9.9375 0 L 9.9375 -142.453125 L 39.25 -142.453125 L 39.25 -76.859375 C 46.539062 -83.921875 55.816406 -87.453125 67.078125 -87.453125 C 79.335938 -87.453125 89.441406 -83.085938 97.390625 -74.359375 Z M 72.71875 -28.078125 C 76.363281 -31.773438 78.1875 -36.550781 78.1875 -42.40625 C 78.1875 -48.257812 76.28125 -53.0625 72.46875 -56.8125 C 68.65625 -60.570312 63.9375 -62.453125 58.3125 -62.453125 C 52.789062 -62.453125 48.125 -60.570312 44.3125 -56.8125 C 40.5 -53.0625 38.59375 -48.257812 38.59375 -42.40625 C 38.59375 -36.664062 40.441406 -31.914062 44.140625 -28.15625 C 47.835938 -24.40625 52.5625 -22.53125 58.3125 -22.53125 C 64.269531 -22.53125 69.070312 -24.378906 72.71875 -28.078125 Z M 72.71875 -28.078125 "/></g></g><g style="fill:#ffffff;fill-opacity:1;"><g transform="translate(399.548356, 166.49991)"><path style="stroke:none" d="M 12.75 -132.34375 C 16.175781 -135.769531 20.265625 -137.484375 25.015625 -137.484375 C 29.765625 -137.484375 33.847656 -135.769531 37.265625 -132.34375 C 40.691406 -128.925781 42.40625 -124.84375 42.40625 -120.09375 C 42.40625 -115.34375 40.691406 -111.253906 37.265625 -107.828125 C 33.847656 -104.410156 29.765625 -102.703125 25.015625 -102.703125 C 20.265625 -102.703125 16.175781 -104.410156 12.75 -107.828125 C 9.332031 -111.253906 7.625 -115.34375 7.625 -120.09375 C 7.625 -124.84375 9.332031 -128.925781 12.75 -132.34375 Z M 9.9375 -84.96875 L 9.9375 0 L 39.25 0 L 39.25 -84.96875 Z M 9.9375 -84.96875 "/></g></g><g style="fill:#ffffff;fill-opacity:1;"><g transform="translate(436.64878, 166.49991)"><path style="stroke:none" d="M 9.9375 0 L 9.9375 -142.453125 L 39.25 -142.453125 L 39.25 0 Z M 9.9375 0 "/></g></g><g style="fill:#ffffff;fill-opacity:1;"><g transform="translate(472.92108, 166.49991)"><path style="stroke:none" d="M 9.9375 0 L 9.9375 -142.453125 L 39.25 -142.453125 L 39.25 0 Z M 9.9375 0 "/></g></g><g style="fill:#ffffff;fill-opacity:1;"><g transform="translate(266.815111, 204.429209)"><path style="stroke:none" d="M 6.1875 -4.125 C 3.0625 -7.539062 1.5 -11.722656 1.5 -16.671875 C 1.5 -21.628906 3.0625 -25.820312 6.1875 -29.25 C 9.320312 -32.6875 13.300781 -34.40625 18.125 -34.40625 C 22.550781 -34.40625 26.195312 -33.015625 29.0625 -30.234375 L 29.0625 -33.4375 L 40.609375 -33.4375 L 40.609375 0 L 29.203125 0 L 29.203125 -3.78125 L 29.0625 -3.78125 C 26.195312 -0.601562 22.550781 0.984375 18.125 0.984375 C 13.300781 0.984375 9.320312 -0.71875 6.1875 -4.125 Z M 16 -22.34375 C 14.5 -20.875 13.75 -18.988281 13.75 -16.6875 C 13.75 -14.382812 14.460938 -12.503906 15.890625 -11.046875 C 17.328125 -9.585938 19.222656 -8.859375 21.578125 -8.859375 C 23.828125 -8.859375 25.679688 -9.597656 27.140625 -11.078125 C 28.597656 -12.554688 29.328125 -14.425781 29.328125 -16.6875 C 29.328125 -18.988281 28.578125 -20.875 27.078125 -22.34375 C 25.578125 -23.820312 23.742188 -24.5625 21.578125 -24.5625 C 19.359375 -24.5625 17.5 -23.820312 16 -22.34375 Z M 16 -22.34375 "/></g></g><g style="fill:#ffffff;fill-opacity:1;"><g transform="translate(311.325234, 204.429209)"><path style="stroke:none" d="M 3.90625 0 L 3.90625 -33.4375 L 15.453125 -33.4375 L 15.453125 -29.90625 L 15.578125 -29.90625 C 18.578125 -32.90625 21.769531 -34.40625 25.15625 -34.40625 C 26.8125 -34.40625 28.453125 -34.1875 30.078125 -33.75 C 31.703125 -33.320312 33.265625 -32.648438 34.765625 -31.734375 C 36.265625 -30.828125 37.476562 -29.535156 38.40625 -27.859375 C 39.34375 -26.191406 39.8125 -24.25 39.8125 -22.03125 L 39.8125 0 L 28.28125 0 L 28.28125 -18.90625 C 28.28125 -20.632812 27.722656 -22.148438 26.609375 -23.453125 C 25.503906 -24.765625 24.0625 -25.421875 22.28125 -25.421875 C 20.550781 -25.421875 18.976562 -24.742188 17.5625 -23.390625 C 16.15625 -22.046875 15.453125 -20.550781 15.453125 -18.90625 L 15.453125 0 Z M 3.90625 0 "/></g></g><g style="fill:#ffffff;fill-opacity:1;"><g transform="translate(354.401642, 204.429209)"><path style="stroke:none" d="M 6.1875 -4.125 C 3.0625 -7.539062 1.5 -11.722656 1.5 -16.671875 C 1.5 -21.628906 3.0625 -25.820312 6.1875 -29.25 C 9.320312 -32.6875 13.300781 -34.40625 18.125 -34.40625 C 22.550781 -34.40625 26.195312 -33.015625 29.0625 -30.234375 L 29.0625 -56.046875 L 40.609375 -56.046875 L 40.609375 0 L 29.203125 0 L 29.203125 -3.78125 L 29.0625 -3.78125 C 26.195312 -0.601562 22.550781 0.984375 18.125 0.984375 C 13.300781 0.984375 9.320312 -0.71875 6.1875 -4.125 Z M 16 -22.34375 C 14.5 -20.875 13.75 -18.988281 13.75 -16.6875 C 13.75 -14.382812 14.460938 -12.503906 15.890625 -11.046875 C 17.328125 -9.585938 19.222656 -8.859375 21.578125 -8.859375 C 23.828125 -8.859375 25.679688 -9.597656 27.140625 -11.078125 C 28.597656 -12.554688 29.328125 -14.425781 29.328125 -16.6875 C 29.328125 -18.988281 28.578125 -20.875 27.078125 -22.34375 C 25.578125 -23.820312 23.742188 -24.5625 21.578125 -24.5625 C 19.359375 -24.5625 17.5 -23.820312 16 -22.34375 Z M 16 -22.34375 "/></g></g><g style="fill:#ffffff;fill-opacity:1;"><g transform="translate(511.575131, 40.14432)"><path style="stroke:none" d="M 0.875 -23.359375 C 0.875 -25.710938 1.703125 -27.722656 3.359375 -29.390625 C 5.015625 -31.066406 7.007812 -31.90625 9.34375 -31.90625 C 11.726562 -31.90625 13.75 -31.066406 15.40625 -29.390625 C 17.0625 -27.722656 17.890625 -25.710938 17.890625 -23.359375 C 17.890625 -21.023438 17.0625 -19.03125 15.40625 -17.375 C 13.75 -15.71875 11.726562 -14.890625 9.34375 -14.890625 C 7.007812 -14.890625 5.015625 -15.71875 3.359375 -17.375 C 1.703125 -19.03125 0.875 -21.023438 0.875 -23.359375 Z M 3.15625 -23.359375 C 3.15625 -21.660156 3.757812 -20.203125 4.96875 -18.984375 C 6.1875 -17.773438 7.644531 -17.171875 9.34375 -17.171875 C 11.09375 -17.171875 12.570312 -17.769531 13.78125 -18.96875 C 15 -20.175781 15.609375 -21.640625 15.609375 -23.359375 C 15.609375 -25.078125 15 -26.550781 13.78125 -27.78125 C 12.570312 -29.007812 11.09375 -29.625 9.34375 -29.625 C 7.644531 -29.625 6.1875 -29.007812 4.96875 -27.78125 C 3.757812 -26.550781 3.15625 -25.078125 3.15625 -23.359375 Z M 6.765625 -27.34375 L 9.53125 -27.34375 C 10.289062 -27.34375 10.910156 -27.140625 11.390625 -26.734375 C 11.867188 -26.335938 12.109375 -25.769531 12.109375 -25.03125 C 12.109375 -23.894531 11.578125 -23.132812 10.515625 -22.75 L 13.296875 -19.484375 L 10.9375 -19.484375 L 8.546875 -22.59375 L 8.546875 -19.484375 L 6.765625 -19.484375 Z M 8.546875 -23.859375 L 8.78125 -23.859375 C 9.71875 -23.859375 10.1875 -24.195312 10.1875 -24.875 C 10.1875 -25.582031 9.71875 -25.9375 8.78125 -25.9375 L 8.546875 -25.9375 Z M 8.546875 -23.859375 "/></g></g></g></svg>